<svg version="1.1" id="Layer_1" xmlns="http://www.w3.org/2000/svg" x="0px" y="0px"
     viewBox="0 0 24 24" xml:space="preserve">
<path fill="currentColor" d="M11.6,1.7C7.9,1.7,5,4.6,5,8.3V9c1.4,0.7,2.6,1.9,3.3,3.3v-4C8.3,6.5,9.7,5,11.6,5l0,0c0.9,0,1.7-0.7,1.7-1.7
	S12.5,1.7,11.6,1.7L11.6,1.7z M1.7,9.1c-1,0-1.7,0.7-1.7,1.7s0.7,1.7,1.7,1.7C3.5,12.5,5,14,5,15.8l0,0v5c0,0.9,0.7,1.7,1.7,1.7
	s1.7-0.7,1.7-1.7v-5C8.3,12.1,5.3,9.1,1.7,9.1L1.7,9.1z M17.4,9.1c-3.7,0-6.6,3-6.6,6.6s3,6.6,6.6,6.6c1.2,0,2.4-0.3,3.5-1
	c0.3,0.6,0.8,1,1.5,1c0.9,0,1.7-0.7,1.7-1.7v-9.9c0-0.9-0.7-1.7-1.7-1.7c-0.7,0-1.2,0.4-1.5,1C19.8,9.4,18.6,9.1,17.4,9.1L17.4,9.1z
	 M17.4,12.4c1.8,0,3.3,1.5,3.3,3.3S19.2,19,17.4,19s-3.3-1.5-3.3-3.3S15.5,12.4,17.4,12.4z"/>
</svg>
